<?xml version="1.0" encoding="UTF-8"?> <svg xmlns="http://www.w3.org/2000/svg" width="14" height="14" viewBox="0 0 14 14" fill="none"><path d="M9.33329 4.66667C10.2615 4.66667 11.1518 5.03542 11.8082 5.69179C12.4645 6.34817 12.8333 7.23841 12.8333 8.16667V12.25H10.5V8.16667C10.5 7.85725 10.377 7.5605 10.1582 7.34171C9.93946 7.12292 9.64271 7 9.33329 7C9.02387 7 8.72713 7.12292 8.50833 7.34171C8.28954 7.5605 8.16663 7.85725 8.16663 8.16667V12.25H5.83329V8.16667C5.83329 7.23841 6.20204 6.34817 6.85842 5.69179C7.5148 5.03542 8.40503 4.66667 9.33329 4.66667Z" fill="white"></path><path d="M3.49996 5.25H1.16663V12.25H3.49996V5.25Z" fill="white"></path><path d="M2.33329 3.5C2.97762 3.5 3.49996 2.97767 3.49996 2.33333C3.49996 1.689 2.97762 1.16667 2.33329 1.16667C1.68896 1.16667 1.16663 1.689 1.16663 2.33333C1.16663 2.97767 1.68896 3.5 2.33329 3.5Z" fill="white"></path></svg> 