<?xml version="1.0" encoding="UTF-8"?> <svg xmlns="http://www.w3.org/2000/svg" width="125" height="24" viewBox="0 0 125 24" fill="none"><g clip-path="url(#clip0_10287_7236)"><path d="M11.3631 23.3636C17.6392 23.3636 22.7267 18.2761 22.7267 12V4.04546C22.7267 3.14131 22.3676 2.2742 21.7282 1.63487C21.0889 0.995539 20.2218 0.636368 19.3176 0.636368L11.9313 0.636368V5.6216C11.9313 6.7591 12.0006 7.9375 12.5972 8.90569C13.0243 9.59955 13.5956 10.1934 14.2725 10.647C14.9493 11.1007 15.7158 11.4034 16.5199 11.5347L16.7375 11.5699C16.8272 11.6006 16.9051 11.6585 16.9603 11.7356C17.0154 11.8128 17.0451 11.9052 17.0451 12C17.0451 12.0948 17.0154 12.1873 16.9603 12.2644C16.9051 12.3415 16.8272 12.3995 16.7375 12.4301L16.5199 12.4653C15.345 12.6573 14.2601 13.2134 13.4183 14.0552C12.5765 14.897 12.0204 15.9819 11.8284 17.1568L11.7932 17.3744C11.7625 17.4642 11.7046 17.542 11.6275 17.5972C11.5503 17.6523 11.4579 17.682 11.3631 17.682C11.2683 17.682 11.1758 17.6523 11.0987 17.5972C11.0216 17.542 10.9636 17.4642 10.933 17.3744L10.8978 17.1568C10.7664 16.3527 10.4637 15.5862 10.0101 14.9094C9.55648 14.2326 8.96262 13.6612 8.26877 13.2341C7.30059 12.6375 6.12218 12.5682 4.98468 12.5682H0.013092C0.310251 18.5801 5.27786 23.3636 11.3631 23.3636Z" fill="#5C5851"></path><path d="M0 11.4318H4.98523C6.12273 11.4318 7.30114 11.3625 8.26932 10.7659C9.02615 10.2996 9.66324 9.66252 10.1295 8.90569C10.7261 7.93751 10.7955 6.7591 10.7955 5.6216V0.636368H3.40909C2.50494 0.636368 1.63783 0.995539 0.9985 1.63487C0.359171 2.2742 0 3.14131 0 4.04546L0 11.4318ZM26.3949 1.77273C26.3949 2.07411 26.2752 2.36315 26.0621 2.57626C25.8489 2.78937 25.5599 2.9091 25.2585 2.9091C24.9571 2.9091 24.6681 2.78937 24.455 2.57626C24.2419 2.36315 24.1222 2.07411 24.1222 1.77273C24.1222 1.47135 24.2419 1.18231 24.455 0.969201C24.6681 0.756092 24.9571 0.636368 25.2585 0.636368C25.5599 0.636368 25.8489 0.756092 26.0621 0.969201C26.2752 1.18231 26.3949 1.47135 26.3949 1.77273ZM120.29 7.51364C123.467 7.51364 125 9.73239 125 12.3023V17.129H121.676V12.875C121.676 11.7102 121.251 10.7489 120.032 10.7489C118.813 10.7489 118.407 11.7102 118.407 12.875V17.1284H115.082V12.875C115.082 11.7102 114.676 10.7489 113.457 10.7489C112.238 10.7489 111.813 11.7102 111.813 12.875V17.1284H108.489V12.3017C108.489 9.73182 110.022 7.51307 113.198 7.51307C114.935 7.51307 116.19 8.19716 116.763 9.32501C117.372 8.19716 118.702 7.51251 120.29 7.51251V7.51364ZM102.515 14.1705C103.586 14.1705 104.048 13.1903 104.048 12.025V7.88296H107.372V12.4318C107.372 15.15 105.784 17.4063 102.515 17.4063C99.246 17.4063 97.658 15.1506 97.658 12.4318V7.88296H100.982V12.025C100.982 13.1898 101.444 14.1705 102.515 14.1705ZM92.7699 17.4244C90.683 17.4244 89.3347 16.7034 88.5403 15.2983L90.9415 13.9483C91.2739 14.5398 91.7722 14.8358 92.6034 14.8358C93.2869 14.8358 93.6006 14.5955 93.6006 14.2994C93.6006 13.1716 88.725 14.3182 88.725 10.7313C88.725 8.99262 90.2023 7.58751 92.7142 7.58751C94.9119 7.58751 96.1125 8.65967 96.6483 9.69546L94.2472 11.0636C94.0443 10.5091 93.4159 10.1761 92.7881 10.1761C92.308 10.1761 92.0494 10.3796 92.0494 10.6568C92.0494 11.8034 96.925 10.7494 96.925 14.2256C96.925 16.1671 95.0227 17.4244 92.7699 17.4244ZM81.1551 21.3818H77.8307V12.4875C77.8307 9.65796 79.9545 7.60569 82.9097 7.60569C85.7909 7.60569 87.9886 9.80626 87.9886 12.4875C87.9886 15.446 86.0307 17.4063 83.0943 17.4063C82.4108 17.4063 81.7278 17.2028 81.1551 16.8881V21.3818ZM82.9097 14.2813C83.9625 14.2813 84.6642 13.4676 84.6642 12.5057C84.6642 11.5261 83.9625 10.7307 82.9097 10.7307C81.8568 10.7307 81.1551 11.5261 81.1551 12.5063C81.1551 13.4676 81.8568 14.2813 82.9097 14.2813ZM74.5006 6.90341C73.4108 6.90341 72.5062 5.99716 72.5062 4.90625C72.5062 3.81535 73.4108 2.9091 74.5006 2.9091C75.5903 2.9091 76.4955 3.81535 76.4955 4.90625C76.4955 5.99716 75.5903 6.90341 74.5006 6.90341ZM72.8386 7.88296H76.1631V17.129H72.8386V7.88296ZM66.4602 17.4063C63.579 17.4063 61.3812 15.1875 61.3812 12.4875C61.3812 9.80626 63.579 7.58751 66.4602 7.58751C69.3415 7.58751 71.5392 9.80626 71.5392 12.4875C71.5392 15.1875 69.3415 17.4063 66.4602 17.4063ZM66.4602 14.2813C67.5131 14.2813 68.2148 13.4676 68.2148 12.5057C68.2148 11.5261 67.5131 10.7125 66.4602 10.7125C65.4074 10.7125 64.7057 11.5261 64.7057 12.5057C64.7057 13.4676 65.4074 14.2813 66.4602 14.2813ZM55.104 21.6591C52.8142 21.6591 51.1517 20.6421 50.3023 18.8296L53.054 17.3506C53.3494 17.9796 53.9034 18.6267 55.0483 18.6267C56.2494 18.6267 57.0432 17.8682 57.1358 16.5369C56.6926 16.9256 55.9903 17.221 54.9381 17.221C52.3705 17.221 50.3017 15.2426 50.3017 12.4688C50.3017 9.78807 52.5 7.60569 55.3812 7.60569C58.3364 7.60569 60.4602 9.65853 60.4602 12.4875V16.1489C60.4602 19.4773 58.1511 21.6591 55.104 21.6591ZM55.3256 14.0966C56.3227 14.0966 57.0801 13.4119 57.0801 12.3949C57.0801 11.3966 56.3233 10.7307 55.3256 10.7307C54.3466 10.7307 53.571 11.3966 53.571 12.3955C53.571 13.4125 54.3466 14.096 55.3256 14.096V14.0966ZM44.6631 17.4063C41.7818 17.4063 39.5835 15.1875 39.5835 12.4875C39.5835 9.80626 41.7818 7.58751 44.6631 7.58751C47.5438 7.58751 49.742 9.80626 49.742 12.4875C49.742 15.1875 47.5443 17.4063 44.6631 17.4063ZM44.6631 14.2813C45.7159 14.2813 46.4176 13.4676 46.4176 12.5057C46.4176 11.5261 45.7159 10.7125 44.6631 10.7125C43.6102 10.7125 42.9085 11.5261 42.9085 12.5057C42.9085 13.4676 43.6102 14.2813 44.6631 14.2813ZM33.5301 4.64773V13.9852H39.0341V17.129H33.0682C30.9631 17.129 30.1136 16.0193 30.1136 14.2625V4.64773H33.5301Z" fill="#5C5851"></path></g><defs><clipPath id="clip0_10287_7236"><rect width="125" height="22.7273" fill="white" transform="translate(0 0.636368)"></rect></clipPath></defs></svg> 